# Blender v2.83.4 OBJ File: 'arena.blend'
# www.blender.org
mtllib start_zone.mtl
o Sphere.001
v -620.626953 257.071960 -0.000154
v -558.549438 373.210785 -0.000224
v -608.701782 257.071960 -121.078453
v -547.817139 373.210785 -108.967819
v -934.498718 257.071960 -0.000153
v -934.498718 373.210785 -0.000225
v -934.498718 257.071960 -121.078453
v -934.498718 373.210785 -108.967819
v -934.498718 257.071960 129.608185
v -934.498718 373.210785 129.607956
v -934.498718 257.071960 -244.631409
v -934.498718 373.210785 -244.631409
v -1455.088867 257.071960 129.608185
v -1455.088867 373.210785 129.607956
v -1455.088867 257.071960 -244.631409
v -1455.088867 373.210785 -244.631409
v -934.498718 -46.742462 129.608185
v -934.498718 -46.742462 -244.631409
v -1455.088867 -46.742462 129.608185
v -1455.088867 -46.742462 -244.631409
v -608.233459 257.340027 1.674026
v -544.348877 376.859680 1.673950
v -595.961182 257.340027 -122.928902
v -533.304138 376.859680 -110.465729
v -931.242126 257.340027 1.674026
v -931.242126 376.859680 1.673950
v -931.242126 257.340027 -122.928902
v -931.242126 376.859680 -110.465729
v -931.242126 257.340027 135.055298
v -931.242126 376.859680 135.055054
v -931.242126 257.340027 -250.078522
v -931.242126 376.859680 -250.078522
v -1466.986816 257.340027 135.055298
v -1466.986816 376.859680 135.055054
v -1466.986816 257.340027 -250.078522
v -1466.986816 376.859680 -250.078522
v -931.242126 -55.318542 135.055298
v -931.242126 -55.318542 -250.078522
v -1466.986816 -55.318542 135.055298
v -1466.986816 -55.318542 -250.078522
vt 0.468750 0.312500
vt 0.500000 0.312500
vt 0.468750 0.312500
vt 0.468750 0.375000
vt 0.468750 0.312500
vt 0.500000 0.375000
vt 0.468750 0.375000
vt 0.468750 0.312500
vt 0.500000 0.312500
vt 0.500000 0.312500
vt 0.500000 0.375000
vt 0.468750 0.375000
vt 0.500000 0.312500
vt 0.468750 0.375000
vt 0.500000 0.375000
vt 0.500000 0.375000
vt 0.468750 0.375000
vt 0.500000 0.375000
vt 0.500000 0.375000
vt 0.468750 0.375000
vt 0.500000 0.312500
vt 0.468750 0.312500
vt 0.468750 0.312500
vt 0.468750 0.375000
vt 0.468750 0.375000
vt 0.500000 0.375000
vt 0.500000 0.375000
vt 0.468750 0.375000
vt 0.468750 0.312500
vt 0.500000 0.312500
vt 0.468750 0.312500
vt 0.500000 0.312500
vt 0.500000 0.375000
vt 0.500000 0.312500
vt 0.468750 0.375000
vt 0.468750 0.375000
vt 0.500000 0.375000
vt 0.500000 0.375000
vt 0.500000 0.375000
vt 0.468750 0.375000
vn 0.0000 1.0000 0.0000
vn 1.0000 0.0000 0.0000
vn 0.0000 -1.0000 0.0000
vn 0.0000 0.1037 -0.9946
vn -0.0000 0.0000 1.0000
vn -1.0000 0.0000 0.0000
vn 0.0000 0.0000 -1.0000
vn 0.0000 -0.1037 0.9946
vn 0.0213 -0.9998 0.0021
vn -0.1451 0.1776 -0.9734
vn -0.2461 0.9689 -0.0242
vn -0.1351 0.0722 0.9882
vn 0.0000 -1.0000 0.0007
usemtl CAR
s off
f 16/1/1 10/2/1 12/3/1
f 7/4/2 12/3/2 8/5/2
f 1/6/3 7/4/3 3/7/3
f 3/7/4 8/5/4 4/8/4
f 8/5/1 2/9/1 4/8/1
f 6/10/5 1/6/5 2/9/5
f 8/5/5 10/2/5 6/10/5
f 10/2/2 5/11/2 6/10/2
f 5/11/5 11/12/5 7/4/5
f 14/13/6 15/14/6 13/15/6
f 14/13/5 9/16/5 10/2/5
f 18/17/7 15/14/7 11/12/7
f 15/14/7 12/3/7 11/12/7
f 19/18/3 18/17/3 17/19/3
f 20/20/6 13/15/6 15/14/6
f 17/19/2 11/12/2 9/16/2
f 19/18/5 9/16/5 13/15/5
f 30/21/3 36/22/3 32/23/3
f 27/24/6 32/23/6 31/25/6
f 21/26/1 27/24/1 25/27/1
f 23/28/8 28/29/8 27/24/8
f 22/30/3 28/29/3 24/31/3
f 21/26/7 26/32/7 22/30/7
f 28/29/5 30/21/5 32/23/5
f 25/27/6 30/21/6 26/32/6
f 25/27/5 31/25/5 29/33/5
f 34/34/2 35/35/2 36/22/2
f 29/33/7 34/34/7 30/21/7
f 35/35/5 38/36/5 31/25/5
f 32/23/5 35/35/5 31/25/5
f 38/36/1 39/37/1 37/38/1
f 33/39/2 40/40/2 35/35/2
f 31/25/6 37/38/6 29/33/6
f 29/33/7 39/37/7 33/39/7
f 3/7/9 21/26/9 1/6/9
f 4/8/10 23/28/10 3/7/10
f 4/8/11 22/30/11 24/31/11
f 2/9/12 21/26/12 22/30/12
f 29/33/13 15/14/13 11/12/13
f 16/1/1 14/13/1 10/2/1
f 7/4/2 11/12/2 12/3/2
f 1/6/3 5/11/3 7/4/3
f 3/7/4 7/4/4 8/5/4
f 8/5/1 6/10/1 2/9/1
f 6/10/5 5/11/5 1/6/5
f 8/5/1 12/3/1 10/2/1
f 10/2/2 9/16/2 5/11/2
f 5/11/1 9/16/1 11/12/1
f 14/13/6 16/1/6 15/14/6
f 14/13/5 13/15/5 9/16/5
f 18/17/7 20/20/7 15/14/7
f 15/14/7 16/1/7 12/3/7
f 19/18/3 20/20/3 18/17/3
f 20/20/6 19/18/6 13/15/6
f 17/19/2 18/17/2 11/12/2
f 19/18/5 17/19/5 9/16/5
f 30/21/3 34/34/3 36/22/3
f 27/24/6 28/29/6 32/23/6
f 21/26/1 23/28/1 27/24/1
f 23/28/8 24/31/8 28/29/8
f 22/30/3 26/32/3 28/29/3
f 21/26/7 25/27/7 26/32/7
f 28/29/5 26/32/5 30/21/5
f 25/27/6 29/33/6 30/21/6
f 25/27/5 27/24/5 31/25/5
f 34/34/2 33/39/2 35/35/2
f 29/33/7 33/39/7 34/34/7
f 35/35/5 40/40/5 38/36/5
f 32/23/5 36/22/5 35/35/5
f 38/36/1 40/40/1 39/37/1
f 33/39/2 39/37/2 40/40/2
f 31/25/6 38/36/6 37/38/6
f 29/33/7 37/38/7 39/37/7
f 3/7/9 23/28/9 21/26/9
f 4/8/10 24/31/10 23/28/10
f 4/8/11 2/9/11 22/30/11
f 2/9/12 1/6/12 21/26/12
f 29/33/13 33/39/13 15/14/13
