# Blender v2.83.5 OBJ File: 'arena.blend'
# www.blender.org
mtllib start_zone.mtl
o Sphere.002
v -620.626953 257.071960 -0.000154
v -558.549438 373.210785 -0.000224
v -608.701782 257.071960 -121.078453
v -547.817139 373.210785 -108.967819
v 366.039246 -131.054214 547.816528
v 252.132156 -131.054214 608.700989
v -615.678589 264.736084 -8.648566
v -561.794189 365.546661 -8.648628
v -605.535706 264.736084 -111.630852
v -552.686768 365.546661 -101.118607
v -891.055847 268.925262 -32.915249
v -891.055847 369.735809 -32.915310
v -891.055847 268.925262 -135.897537
v -891.055847 369.735809 -125.385284
v -954.992737 268.925262 36.179874
v -954.992737 390.853088 36.179871
v -954.992737 268.925262 -199.736572
v -954.992737 390.853088 -199.736572
v -1406.060791 268.925262 36.179871
v -1406.060791 390.853088 36.179871
v -1406.060791 268.925262 -199.736572
v -1406.060791 390.853088 -199.736572
vt 0.497726 0.370876
vt 0.471024 0.370876
vt 0.471024 0.370876
vt 0.497726 0.370876
vt 0.497570 0.316624
vt 0.500000 0.312500
vt 0.500000 0.375000
vt 0.471180 0.316625
vt 0.468750 0.375000
vt 0.468750 0.312500
vt 0.471024 0.370876
vt 0.497726 0.370876
vt 0.471180 0.316625
vt 0.497570 0.316624
vt 0.471180 0.316625
vt 0.497570 0.316624
vt 0.497570 0.316624
vt 0.471180 0.316625
vt 0.497632 0.370876
vt 0.497632 0.370876
vt 0.497632 0.316625
vt 0.497726 0.370876
vt 0.471024 0.370876
vn 0.0149 0.9999 0.0007
vn 0.8786 -0.4696 0.0865
vn 0.0000 1.0000 0.0000
vn -0.0784 -0.0830 0.9935
vn -0.0125 -0.9999 -0.0006
vn 0.0797 -0.0213 -0.9966
vn 0.0000 -1.0000 0.0000
vn -0.7360 -0.0319 0.6762
vn -0.3136 -0.9495 0.0000
vn -0.7340 -0.0000 -0.6792
vn 1.0000 0.0000 0.0000
vn 0.0000 -0.0000 -1.0000
vn 0.0000 0.0000 1.0000
usemtl CAR
s off
f 7/1/1 9/2/1 13/3/1 11/4/1
f 7/1/2 8/5/2 2/6/2 1/7/2
f 10/8/2 9/2/2 3/9/2 4/10/2
f 8/5/2 10/8/2 4/10/2 2/6/2
f 9/2/2 7/1/2 1/7/2 3/9/2
f 11/4/3 13/3/3 17/11/3 15/12/3
f 9/2/4 10/8/4 14/13/4 13/3/4
f 10/8/5 8/5/5 12/14/5 14/13/5
f 8/5/6 7/1/6 11/4/6 12/14/6
f 18/15/7 16/16/7 20/17/7 22/18/7
f 13/3/8 14/13/8 18/15/8 17/11/8
f 14/13/9 12/14/9 16/16/9 18/15/9
f 12/14/10 11/4/10 15/12/10 16/16/10
f 20/17/11 19/19/11 21/20/11 22/21/11
f 16/16/12 15/12/12 19/22/12 20/17/12
f 15/12/3 17/11/3 21/23/3 19/22/3
f 17/11/13 18/15/13 22/18/13 21/23/13
l 6 5
